<svg xmlns="http://www.w3.org/2000/svg" xmlns:xlink="http://www.w3.org/1999/xlink" width="1024" zoomAndPan="magnify" viewBox="0 0 768 767.999994" height="1024" preserveAspectRatio="xMidYMid meet" version="1.0"><defs><filter x="0%" y="0%" width="100%" height="100%" id="726ca36021"><feColorMatrix values="0 0 0 0 1 0 0 0 0 1 0 0 0 0 1 0 0 0 1 0" color-interpolation-filters="sRGB"/></filter><clipPath id="ef3a0abe17"><path d="M 84 72.03125 L 696.03125 72.03125 L 696.03125 681 L 84 681 Z M 84 72.03125 " clip-rule="nonzero"/></clipPath><mask id="472a96f5a4"><g filter="url(#726ca36021)"><rect x="-76.8" width="921.6" fill="#000000" y="-76.799999" height="921.599993" fill-opacity="0.3"/></g></mask><clipPath id="5d99e7e5b1"><rect x="0" width="613" y="0" height="609"/></clipPath></defs><g clip-path="url(#ef3a0abe17)"><g mask="url(#472a96f5a4)"><g transform="matrix(1, 0, 0, 1, 84, 72)"><g clip-path="url(#5d99e7e5b1)"><path fill="#b4b4b4" d="M 362.453125 93.277344 L 362.453125 48.160156 C 362.453125 35.28125 347.5625 28.113281 337.496094 36.148438 L 79.21875 242.269531 C -8.859375 319.988281 -13.105469 455.902344 69.957031 538.964844 C 153.015625 622.027344 288.933594 617.78125 366.648438 529.699219 L 572.769531 271.421875 C 580.804688 261.355469 573.636719 246.46875 560.761719 246.46875 L 515.644531 246.46875 C 504.152344 246.46875 496.726562 234.320312 501.964844 224.09375 L 603.292969 26.3125 C 610.097656 13.035156 595.890625 -1.171875 582.605469 5.628906 L 384.828125 106.953125 C 374.601562 112.195312 362.453125 104.765625 362.453125 93.277344 Z M 221.261719 510.601562 C 153.363281 510.601562 98.320312 455.554688 98.320312 387.660156 C 98.320312 319.761719 153.359375 264.71875 221.261719 264.714844 C 289.160156 264.714844 344.203125 319.761719 344.203125 387.660156 C 344.203125 455.558594 289.160156 510.601562 221.261719 510.601562 Z M 221.261719 510.601562 " fill-opacity="1" fill-rule="nonzero"/></g></g></g></g><path fill="#b4b4b4" d="M 182.320312 459.660156 C 182.320312 391.761719 237.359375 336.71875 305.261719 336.714844 C 373.160156 336.714844 428.203125 391.761719 428.203125 459.660156 C 428.203125 527.558594 373.160156 582.601562 305.261719 582.601562 C 237.363281 582.601562 182.320312 527.554688 182.320312 459.660156 Z M 182.320312 459.660156 " fill-opacity="1" fill-rule="nonzero"/></svg>